<svg xmlns="http://www.w3.org/2000/svg" width="37" height="40" fill="none" viewBox="0 0 37 40"><path fill="#F49BBA" fill-rule="evenodd" d="M28.4556 1.87008C21.2275 4.20789 16 10.9935 16 19C16 27.8999 22.4591 35.2912 30.9454 36.7419C27.8006 38.802 24.0402 40 20 40C8.9543 40 0 31.0457 0 20C0 8.9543 8.9543 0 20 0C23.0219 0 25.8873 0.670204 28.4556 1.87008Z" clip-rule="evenodd"/><circle cx="7.5" cy="14.5" r="2.5" fill="#121212"/><circle cx="15.5" cy="16.5" r="2.5" fill="#121212"/><path fill="#121212" fill-rule="evenodd" d="M15.3348 22.408C14.2852 23.2656 12.5831 23.5191 10.9151 22.939C9.24722 22.3589 8.06981 21.1042 7.77865 19.7805C7.35518 21.6505 8.48183 23.614 10.4432 24.2961C12.4047 24.9783 14.5066 24.1375 15.3348 22.408Z" clip-rule="evenodd"/><path fill="#FF4D8B" d="M24.7815 13.6322L24.2188 15.738L26.0476 16.9239L23.871 17.0394L23.3083 19.1451L22.5258 17.1108L20.3493 17.2263L22.0422 15.8535L21.2598 13.8192L23.0885 15.0051L24.7815 13.6322Z"/><path fill="#FF4D8B" d="M25.9891 6.25561L26.8368 8.26363L29.0085 8.07791L27.3607 9.50465L28.2085 11.5127L26.3424 10.3864L24.6946 11.8132L25.189 9.69037L23.3229 8.56413L25.4946 8.37841L25.9891 6.25561Z"/><path fill="#FF4D8B" d="M26.6667 27.7807L24.5608 27.2186L23.3754 29.0477L23.2593 26.8712L21.1534 26.3091L23.1875 25.526L23.0714 23.3495L24.4447 25.0421L26.4788 24.259L25.2934 26.0882L26.6667 27.7807Z"/><path fill="#FF4D8B" d="M32.2506 31.1474L31.5073 29.0985L29.3289 29.1722L31.0479 27.8321L30.3046 25.7832L32.1103 27.0039L33.8293 25.6638L33.2263 27.7584L35.032 28.9791L32.8536 29.0529L32.2506 31.1474Z"/><path fill="#FF4D8B" d="M34.6667 20.7807L32.5608 20.2186L31.3754 22.0477L31.2593 19.8712L29.1534 19.3091L31.1875 18.526L31.0714 16.3495L32.4447 18.0421L34.4788 17.259L33.2934 19.0882L34.6667 20.7807Z"/></svg>