<svg xmlns="http://www.w3.org/2000/svg" width="40" height="40" fill="none" viewBox="0 0 40 40"><rect width="2.667" height="8" x="32" y="21.333" fill="#FFC700" rx="1.333" transform="rotate(-90 32 21.3334)"/><rect width="2.667" height="8" x="18.667" y="32" fill="#FFC700" rx="1.333"/><rect width="2.667" height="8" fill="#FFC700" rx="1.333" transform="matrix(1 0 0 -1 18.6667 8)"/><rect width="2.667" height="8" fill="#FFC700" rx="1.333" transform="matrix(0 -1 -1 0 8 21.3334)"/><rect width="2.667" height="8" x="5.333" y="8.552" fill="#FFC700" rx="1.333" transform="rotate(-45 5.33328 8.55225)"/><rect width="2.667" height="8" x="26.667" y="28.552" fill="#FFC700" rx="1.333" transform="rotate(-45 26.6667 28.5522)"/><rect width="2.667" height="8" x="29.59" y="13.629" fill="#FFC700" rx="1.333" transform="rotate(-135 29.5898 13.6292)"/><rect width="2.667" height="8" x="25.13" y="12.412" fill="#FFC700" rx="1.333" transform="rotate(-157.5 25.1303 12.4115)"/><rect width="2.667" height="8" x="14.464" y="36.411" fill="#FFC700" rx="1.333" transform="rotate(-157.5 14.4636 36.4115)"/><rect width="2.667" height="8" fill="#FFC700" rx="1.333" transform="matrix(0.92388 -0.382683 -0.382683 -0.92388 25.7281 36.4115)"/><rect width="2.667" height="8" fill="#FFC700" rx="1.333" transform="matrix(0.382683 -0.92388 -0.92388 -0.382683 11.3914 18.8585)"/><rect width="2.667" height="8" fill="#FFC700" rx="1.333" transform="matrix(0.382683 -0.92388 -0.92388 -0.382683 35.3914 28.1918)"/><rect width="2.667" height="8" x="29.021" y="18.858" fill="#FFC700" rx="1.333" transform="rotate(-112.5 29.0209 18.8585)"/><rect width="2.667" height="8" x="5.021" y="28.192" fill="#FFC700" rx="1.333" transform="rotate(-112.5 5.02094 28.1918)"/><rect width="2.667" height="8" fill="#FFC700" rx="1.333" transform="matrix(0.92388 -0.382683 -0.382683 -0.92388 15.0615 12.4115)"/><rect width="2.667" height="8" x="7.219" y="34.209" fill="#FFC700" rx="1.333" transform="rotate(-135 7.21945 34.2091)"/><circle cx="20" cy="20" r="13.333" fill="#FFEC40" transform="rotate(-90 20.0002 19.9999)"/><path fill="#121212" fill-rule="evenodd" d="M23.5345 22.6667C22.5935 23.736 21.3559 24.3852 20.0001 24.3852C18.6443 24.3852 17.4067 23.736 16.4657 22.6666C17.1477 25.0497 18.4747 26.6666 20.0001 26.6666C21.5254 26.6666 22.8524 25.0497 23.5345 22.6667Z" clip-rule="evenodd"/><circle r="2" fill="#000" transform="matrix(-1 0 0 1 24.6667 18)"/><circle r="2" fill="#000" transform="matrix(-1 0 0 1 15.3333 18)"/></svg>