<svg xmlns="http://www.w3.org/2000/svg" id="Resume" width="100%" height="100%" fill="none" preserveAspectRatio="xMaxYMax" viewBox="0 0 48 48"><path fill="#000" fill-rule="evenodd" d="M24 48C37.2548 48 48 37.2548 48 24C48 10.7452 37.2548 0 24 0C10.7452 0 0 10.7452 0 24C0 37.2548 10.7452 48 24 48ZM14 14C14 12.8954 14.8954 12 16 12H25.9048V20.9286H34.8333V35C34.8333 36.1046 33.9379 37 32.8333 37H16C14.8954 37 14 36.1046 14 35V14ZM18.7619 23.9048H30.0714V25.0952H18.7619V23.9048ZM30.0714 26.2857H18.7619V27.4762H30.0714V26.2857ZM18.7618 31.0476H30.0714V32.2381H18.7618V31.0476ZM30.0714 28.6667H18.7618V29.8572H30.0714V28.6667ZM34.8333 20.3333L26.5 12V20.3333H34.8333Z" clip-rule="evenodd"/></svg>